<svg width="15" height="15" viewBox="0 0 15 15" fill="none" xmlns="http://www.w3.org/2000/svg">
<path d="M14.1429 11.1696C14.1429 11.3504 14.1094 11.5882 14.0424 11.8828C13.9754 12.1708 13.9051 12.3984 13.8315 12.5658C13.6908 12.9007 13.2824 13.2556 12.606 13.6306C11.9766 13.9721 11.3538 14.1429 10.7377 14.1429C10.5569 14.1429 10.3795 14.1328 10.2054 14.1127C10.0312 14.0859 9.83705 14.0424 9.62277 13.9821C9.41518 13.9219 9.25781 13.875 9.15067 13.8415C9.05022 13.8013 8.86607 13.731 8.59822 13.6306C8.33036 13.5301 8.1663 13.4699 8.10603 13.4498C7.44978 13.2154 6.86384 12.9375 6.34821 12.6161C5.49777 12.0871 4.61384 11.3638 3.69643 10.4464C2.77902 9.52902 2.0558 8.64509 1.52679 7.79464C1.20536 7.27902 0.927455 6.69308 0.69308 6.03683C0.672991 5.97656 0.612723 5.8125 0.512277 5.54464C0.41183 5.27679 0.341518 5.09263 0.301339 4.99219C0.267857 4.88505 0.220982 4.72768 0.160714 4.52009C0.100446 4.3058 0.0569196 4.11161 0.0301339 3.9375C0.0100446 3.76339 0 3.58594 0 3.40513C0 2.78906 0.170759 2.1663 0.512277 1.53683C0.887277 0.860491 1.24219 0.452009 1.57701 0.311384C1.74442 0.237723 1.9721 0.167411 2.26004 0.100447C2.55469 0.0334822 2.79241 0 2.97321 0C3.06696 0 3.13728 0.0100447 3.18415 0.0301341C3.30469 0.0703129 3.48214 0.324777 3.71652 0.793527C3.79018 0.920759 3.89063 1.10156 4.01786 1.33594C4.14509 1.57031 4.26228 1.7846 4.36942 1.97879C4.47656 2.1663 4.58036 2.34375 4.6808 2.51116C4.70089 2.53795 4.75781 2.62165 4.85156 2.76228C4.95201 2.9029 5.02567 3.02344 5.07255 3.12388C5.11942 3.21763 5.14286 3.31138 5.14286 3.40513C5.14286 3.53906 5.04576 3.70647 4.85156 3.90737C4.66406 4.10826 4.45647 4.29241 4.2288 4.45982C4.00781 4.62723 3.80022 4.80469 3.60603 4.99219C3.41853 5.17969 3.32478 5.33371 3.32478 5.45424C3.32478 5.51451 3.34152 5.59152 3.375 5.68527C3.40848 5.77232 3.43527 5.83929 3.45536 5.88616C3.48214 5.93304 3.52902 6.01339 3.59598 6.12723C3.66964 6.24107 3.70982 6.30469 3.71652 6.31808C4.22545 7.23549 4.80804 8.02232 5.46429 8.67857C6.12054 9.33482 6.90737 9.91741 7.82478 10.4263C7.83817 10.433 7.90179 10.4732 8.01563 10.5469C8.12947 10.6138 8.20982 10.6607 8.2567 10.6875C8.30357 10.7076 8.37054 10.7344 8.45759 10.7679C8.55134 10.8013 8.62835 10.8181 8.68862 10.8181C8.80915 10.8181 8.96317 10.7243 9.15067 10.5368C9.33817 10.3426 9.51563 10.135 9.68304 9.91406C9.85045 9.68638 10.0346 9.4788 10.2355 9.2913C10.4364 9.0971 10.6038 9 10.7377 9C10.8315 9 10.9252 9.02344 11.019 9.07031C11.1194 9.11719 11.24 9.19085 11.3806 9.2913C11.5212 9.38505 11.6049 9.44196 11.6317 9.46205C11.7991 9.5625 11.9766 9.6663 12.1641 9.77344C12.3583 9.88058 12.5725 9.99777 12.8069 10.125C13.0413 10.2522 13.2221 10.3527 13.3493 10.4263C13.8181 10.6607 14.0725 10.8382 14.1127 10.9587C14.1328 11.0056 14.1429 11.0759 14.1429 11.1696Z" fill="white"/>
</svg>
