<svg width="133" height="42" viewBox="0 0 133 42" fill="none" xmlns="http://www.w3.org/2000/svg">
<mask id="path-1-outside-1_168_629" maskUnits="userSpaceOnUse" x="0" y="0" width="37" height="42" fill="black">
<rect fill="white" width="37" height="42"/>
<path d="M23.2227 1.04959C23.0991 1.07828 22.7777 1.18896 22.5139 1.28735C21.9865 1.48822 21.4797 1.82437 21.0099 2.2876C20.6308 2.66064 20.4701 2.9025 19.8767 4.02163C19.3946 4.9235 19.2834 5.16536 19.0691 5.80486C18.5458 7.36673 18.2738 8.72362 18.0307 11.0316C17.837 12.8189 17.8288 12.8763 17.7834 12.7902C17.7628 12.7574 17.6269 12.3803 17.4826 11.9539C16.8687 10.1748 16.0074 8.39567 15.1091 7.06337C13.8194 5.14486 12.3359 3.92325 10.7989 3.50511C10.4157 3.39853 10.3292 3.39033 9.58336 3.39033C8.83752 3.39033 8.75099 3.39853 8.36777 3.50101C7.04504 3.85766 5.89538 4.80872 5.25668 6.07542C4.99296 6.60014 4.87346 7.00188 4.74572 7.78896C4.63034 8.48586 4.54793 8.69902 4.25536 9.08846C4.11938 9.27294 3.97104 9.40412 3.70319 9.57629C3.5054 9.70747 3.23756 9.87965 3.11394 9.96163C2.78017 10.1789 2.14971 10.8266 1.89423 11.2242C1.25141 12.2163 0.995928 13.069 1.00005 14.2291C1.00417 15.9098 1.59342 17.1109 2.80077 17.9144C3.73616 18.5334 4.86934 18.927 6.30744 19.1237C7.39941 19.2754 8.48314 19.2959 10.5723 19.2098L11.0874 19.1893L10.6547 19.4025C10.4157 19.5214 9.96246 19.7386 9.64517 19.8862C8.74274 20.3044 7.556 21.0259 6.6989 21.6859C4.67155 23.2395 3.7444 24.9367 3.97928 26.6584C4.23888 28.5769 5.42562 29.901 7.58896 30.6881C8.77983 31.1226 9.06003 31.3153 9.67401 32.127C10.0201 32.5861 10.1396 32.7009 10.8196 33.2666C11.5365 33.8651 12.134 34.1398 13.1889 34.357C13.8853 34.5005 14.1119 34.5128 14.7548 34.4431C15.3729 34.3816 15.686 34.3078 16.0734 34.148C16.8316 33.8364 17.359 33.3691 17.9359 32.5041C18.5952 31.5121 18.9702 30.3724 19.2051 28.6384C19.2628 28.208 19.3246 27.8021 19.341 27.7365C19.3699 27.6381 19.4564 27.9456 19.7943 29.2943C20.6761 32.8444 21.7722 35.9394 23.0496 38.4769C23.6142 39.6083 24.2982 40.7357 24.5207 40.9078C24.6896 41.039 24.9163 41.0308 25.0852 40.8791C25.2047 40.7725 25.2212 40.7357 25.2212 40.5594C25.2171 40.379 25.1718 40.2888 24.6649 39.4812C23.8614 38.1981 23.1485 36.7101 22.4892 34.9473C21.7393 32.9427 21.0594 30.7578 20.5031 28.5359C20.2105 27.3758 19.8314 25.5229 19.8973 25.5844C19.9097 25.5967 20.1611 26.1337 20.4536 26.7814C21.0305 28.0563 21.356 28.6753 21.8588 29.4583C22.9178 31.1062 23.9562 32.0573 25.0564 32.3852C26.5316 32.8239 28.493 32.2171 29.6591 30.9586C30.2031 30.3724 30.5368 29.8559 30.8459 29.1303C31.3074 28.0358 31.5959 27.6832 32.3911 27.2241C33.7427 26.4493 34.3979 25.8139 34.9047 24.785C35.4775 23.6249 35.5723 22.436 35.1849 21.2595C34.9624 20.579 34.6328 20.0461 34.0806 19.4804C33.31 18.6892 32.3664 18.1317 31.019 17.6726C29.9764 17.3118 28.2004 16.947 27.0549 16.8527C25.9794 16.7666 25.9629 16.7625 26.033 16.7256C26.0701 16.7051 26.4368 16.5985 26.853 16.4837C30.644 15.4466 32.7785 14.1225 33.3512 12.4459C33.4543 12.1343 33.4625 12.0769 33.4584 11.38C33.4584 10.6913 33.446 10.6093 33.3306 10.1625C33.0298 9.03107 32.5807 8.2071 31.8925 7.5225C31.5711 7.20275 31.1755 6.9076 30.4544 6.45667C29.4984 5.85815 29.2306 5.53431 28.835 4.48896C28.5795 3.82896 28.4683 3.6035 28.1634 3.16077C27.6277 2.38189 26.9148 1.79977 26.0453 1.42673C25.2789 1.09878 24.9534 1.02499 24.1292 1.00449C23.6265 0.992195 23.3916 1.00449 23.2227 1.04959ZM24.9946 1.99244C25.7198 2.18921 26.4244 2.60325 26.9725 3.15667C27.4134 3.5953 27.6442 3.96424 27.945 4.69803C28.0727 5.01368 28.2375 5.40313 28.3158 5.563C28.6578 6.28449 29.1111 6.75592 29.8611 7.17405C30.1207 7.31753 30.4256 7.49381 30.5368 7.5717C31.0849 7.93244 31.8472 8.78921 31.9832 9.19505C32.0162 9.29753 32.0697 9.40822 32.1027 9.43281C32.1686 9.4861 32.3953 10.1461 32.4777 10.5314C32.5601 10.9332 32.593 11.6629 32.5395 11.9539C32.4612 12.3721 32.2716 12.6877 31.8349 13.1264C31.0148 13.9462 29.6179 14.6718 27.5823 15.3318C26.1154 15.8073 24.8957 16.0943 22.9136 16.4223C21.2159 16.7092 20.1322 16.8445 19.3493 16.8814L18.7436 16.906L18.69 16.6846C18.6282 16.4386 18.657 14.1758 18.7312 12.9993C18.9043 10.3224 19.3287 7.88325 19.9468 6.05083C20.7833 3.5584 21.9 2.2589 23.4741 1.93095C23.7584 1.87356 24.6855 1.91045 24.9946 1.99244ZM10.5229 4.39058C10.9761 4.49716 11.6066 4.80462 12.1093 5.15716C12.4967 5.43182 13.4568 6.36238 13.7988 6.79691C14.1119 7.19455 14.6724 8.01443 14.9526 8.49406C16.3289 10.8348 17.7422 15.1104 17.7422 16.9306V17.1314L17.5486 17.197C16.9676 17.3856 14.6353 17.8324 13.0406 18.0579C10.2385 18.4555 7.61369 18.4637 5.70995 18.0825C3.57545 17.6562 2.43403 16.7912 1.99312 15.2744C1.91071 14.9875 1.89835 14.8604 1.90247 14.2701C1.90247 13.6429 1.91483 13.5568 2.03845 13.1018C2.19092 12.5278 2.48348 11.8965 2.76369 11.5317C3.0068 11.2078 3.28701 10.9783 3.99576 10.5028C4.59737 10.0969 5.06301 9.65008 5.22783 9.32213C5.37206 9.03517 5.48331 8.67853 5.66462 7.88735C5.84181 7.13306 5.99015 6.66573 6.15498 6.33778C6.67418 5.30064 7.6961 4.55455 8.89521 4.32499C9.31139 4.2471 10.0449 4.27579 10.5229 4.39058ZM26.169 17.6767C28.3735 17.816 30.438 18.2916 31.7978 18.9639C32.5724 19.3492 33.2812 19.9026 33.7139 20.4683C33.9776 20.8086 34.2413 21.3251 34.3732 21.7514C34.4721 22.0794 34.4844 22.186 34.4844 22.7148C34.4844 23.2436 34.4721 23.3502 34.3732 23.6781C33.9982 24.9121 33.2565 25.7196 31.7236 26.5559C31.5382 26.6584 31.3115 26.8429 31.0272 27.1298C30.5533 27.6053 30.3555 27.921 30.0176 28.7491C29.4408 30.1675 28.287 31.2046 26.9148 31.5285C26.5069 31.6268 25.8682 31.635 25.4891 31.5448C24.5289 31.3194 23.6224 30.5077 22.5922 28.9458C21.1995 26.8265 19.7449 22.8829 18.9784 19.1483C18.7683 18.1235 18.7394 17.8775 18.8218 17.8775C18.8589 17.8775 19.3452 17.8406 19.9097 17.7996C22.4357 17.6029 24.4177 17.5619 26.169 17.6767ZM17.8329 18.4309C18.0966 19.382 18.3521 21.2267 18.4881 23.1862C18.554 24.0799 18.554 26.5477 18.4922 27.2651C18.1625 30.9709 17.1447 32.9263 15.2698 33.4552C14.8413 33.574 14.1326 33.6027 13.601 33.5248C12.2618 33.3199 11.2193 32.664 10.3003 31.4465C9.69461 30.6471 9.12596 30.2699 7.85268 29.8272C6.92142 29.5034 6.3981 29.1877 5.87889 28.6343C4.57677 27.2528 4.51908 25.4368 5.72231 23.8831C6.0396 23.4691 6.63709 22.8747 7.03268 22.5754C7.20162 22.4483 7.43238 22.268 7.54364 22.1778C8.14937 21.694 9.62044 20.8742 10.8731 20.3208C13.6216 19.1073 16.3289 18.2752 17.4497 18.2998L17.7999 18.308L17.8329 18.4309Z"/>
</mask>
<path d="M23.2227 1.04959C23.0991 1.07828 22.7777 1.18896 22.5139 1.28735C21.9865 1.48822 21.4797 1.82437 21.0099 2.2876C20.6308 2.66064 20.4701 2.9025 19.8767 4.02163C19.3946 4.9235 19.2834 5.16536 19.0691 5.80486C18.5458 7.36673 18.2738 8.72362 18.0307 11.0316C17.837 12.8189 17.8288 12.8763 17.7834 12.7902C17.7628 12.7574 17.6269 12.3803 17.4826 11.9539C16.8687 10.1748 16.0074 8.39567 15.1091 7.06337C13.8194 5.14486 12.3359 3.92325 10.7989 3.50511C10.4157 3.39853 10.3292 3.39033 9.58336 3.39033C8.83752 3.39033 8.75099 3.39853 8.36777 3.50101C7.04504 3.85766 5.89538 4.80872 5.25668 6.07542C4.99296 6.60014 4.87346 7.00188 4.74572 7.78896C4.63034 8.48586 4.54793 8.69902 4.25536 9.08846C4.11938 9.27294 3.97104 9.40412 3.70319 9.57629C3.5054 9.70747 3.23756 9.87965 3.11394 9.96163C2.78017 10.1789 2.14971 10.8266 1.89423 11.2242C1.25141 12.2163 0.995928 13.069 1.00005 14.2291C1.00417 15.9098 1.59342 17.1109 2.80077 17.9144C3.73616 18.5334 4.86934 18.927 6.30744 19.1237C7.39941 19.2754 8.48314 19.2959 10.5723 19.2098L11.0874 19.1893L10.6547 19.4025C10.4157 19.5214 9.96246 19.7386 9.64517 19.8862C8.74274 20.3044 7.556 21.0259 6.6989 21.6859C4.67155 23.2395 3.7444 24.9367 3.97928 26.6584C4.23888 28.5769 5.42562 29.901 7.58896 30.6881C8.77983 31.1226 9.06003 31.3153 9.67401 32.127C10.0201 32.5861 10.1396 32.7009 10.8196 33.2666C11.5365 33.8651 12.134 34.1398 13.1889 34.357C13.8853 34.5005 14.1119 34.5128 14.7548 34.4431C15.3729 34.3816 15.686 34.3078 16.0734 34.148C16.8316 33.8364 17.359 33.3691 17.9359 32.5041C18.5952 31.5121 18.9702 30.3724 19.2051 28.6384C19.2628 28.208 19.3246 27.8021 19.341 27.7365C19.3699 27.6381 19.4564 27.9456 19.7943 29.2943C20.6761 32.8444 21.7722 35.9394 23.0496 38.4769C23.6142 39.6083 24.2982 40.7357 24.5207 40.9078C24.6896 41.039 24.9163 41.0308 25.0852 40.8791C25.2047 40.7725 25.2212 40.7357 25.2212 40.5594C25.2171 40.379 25.1718 40.2888 24.6649 39.4812C23.8614 38.1981 23.1485 36.7101 22.4892 34.9473C21.7393 32.9427 21.0594 30.7578 20.5031 28.5359C20.2105 27.3758 19.8314 25.5229 19.8973 25.5844C19.9097 25.5967 20.1611 26.1337 20.4536 26.7814C21.0305 28.0563 21.356 28.6753 21.8588 29.4583C22.9178 31.1062 23.9562 32.0573 25.0564 32.3852C26.5316 32.8239 28.493 32.2171 29.6591 30.9586C30.2031 30.3724 30.5368 29.8559 30.8459 29.1303C31.3074 28.0358 31.5959 27.6832 32.3911 27.2241C33.7427 26.4493 34.3979 25.8139 34.9047 24.785C35.4775 23.6249 35.5723 22.436 35.1849 21.2595C34.9624 20.579 34.6328 20.0461 34.0806 19.4804C33.31 18.6892 32.3664 18.1317 31.019 17.6726C29.9764 17.3118 28.2004 16.947 27.0549 16.8527C25.9794 16.7666 25.9629 16.7625 26.033 16.7256C26.0701 16.7051 26.4368 16.5985 26.853 16.4837C30.644 15.4466 32.7785 14.1225 33.3512 12.4459C33.4543 12.1343 33.4625 12.0769 33.4584 11.38C33.4584 10.6913 33.446 10.6093 33.3306 10.1625C33.0298 9.03107 32.5807 8.2071 31.8925 7.5225C31.5711 7.20275 31.1755 6.9076 30.4544 6.45667C29.4984 5.85815 29.2306 5.53431 28.835 4.48896C28.5795 3.82896 28.4683 3.6035 28.1634 3.16077C27.6277 2.38189 26.9148 1.79977 26.0453 1.42673C25.2789 1.09878 24.9534 1.02499 24.1292 1.00449C23.6265 0.992195 23.3916 1.00449 23.2227 1.04959ZM24.9946 1.99244C25.7198 2.18921 26.4244 2.60325 26.9725 3.15667C27.4134 3.5953 27.6442 3.96424 27.945 4.69803C28.0727 5.01368 28.2375 5.40313 28.3158 5.563C28.6578 6.28449 29.1111 6.75592 29.8611 7.17405C30.1207 7.31753 30.4256 7.49381 30.5368 7.5717C31.0849 7.93244 31.8472 8.78921 31.9832 9.19505C32.0162 9.29753 32.0697 9.40822 32.1027 9.43281C32.1686 9.4861 32.3953 10.1461 32.4777 10.5314C32.5601 10.9332 32.593 11.6629 32.5395 11.9539C32.4612 12.3721 32.2716 12.6877 31.8349 13.1264C31.0148 13.9462 29.6179 14.6718 27.5823 15.3318C26.1154 15.8073 24.8957 16.0943 22.9136 16.4223C21.2159 16.7092 20.1322 16.8445 19.3493 16.8814L18.7436 16.906L18.69 16.6846C18.6282 16.4386 18.657 14.1758 18.7312 12.9993C18.9043 10.3224 19.3287 7.88325 19.9468 6.05083C20.7833 3.5584 21.9 2.2589 23.4741 1.93095C23.7584 1.87356 24.6855 1.91045 24.9946 1.99244ZM10.5229 4.39058C10.9761 4.49716 11.6066 4.80462 12.1093 5.15716C12.4967 5.43182 13.4568 6.36238 13.7988 6.79691C14.1119 7.19455 14.6724 8.01443 14.9526 8.49406C16.3289 10.8348 17.7422 15.1104 17.7422 16.9306V17.1314L17.5486 17.197C16.9676 17.3856 14.6353 17.8324 13.0406 18.0579C10.2385 18.4555 7.61369 18.4637 5.70995 18.0825C3.57545 17.6562 2.43403 16.7912 1.99312 15.2744C1.91071 14.9875 1.89835 14.8604 1.90247 14.2701C1.90247 13.6429 1.91483 13.5568 2.03845 13.1018C2.19092 12.5278 2.48348 11.8965 2.76369 11.5317C3.0068 11.2078 3.28701 10.9783 3.99576 10.5028C4.59737 10.0969 5.06301 9.65008 5.22783 9.32213C5.37206 9.03517 5.48331 8.67853 5.66462 7.88735C5.84181 7.13306 5.99015 6.66573 6.15498 6.33778C6.67418 5.30064 7.6961 4.55455 8.89521 4.32499C9.31139 4.2471 10.0449 4.27579 10.5229 4.39058ZM26.169 17.6767C28.3735 17.816 30.438 18.2916 31.7978 18.9639C32.5724 19.3492 33.2812 19.9026 33.7139 20.4683C33.9776 20.8086 34.2413 21.3251 34.3732 21.7514C34.4721 22.0794 34.4844 22.186 34.4844 22.7148C34.4844 23.2436 34.4721 23.3502 34.3732 23.6781C33.9982 24.9121 33.2565 25.7196 31.7236 26.5559C31.5382 26.6584 31.3115 26.8429 31.0272 27.1298C30.5533 27.6053 30.3555 27.921 30.0176 28.7491C29.4408 30.1675 28.287 31.2046 26.9148 31.5285C26.5069 31.6268 25.8682 31.635 25.4891 31.5448C24.5289 31.3194 23.6224 30.5077 22.5922 28.9458C21.1995 26.8265 19.7449 22.8829 18.9784 19.1483C18.7683 18.1235 18.7394 17.8775 18.8218 17.8775C18.8589 17.8775 19.3452 17.8406 19.9097 17.7996C22.4357 17.6029 24.4177 17.5619 26.169 17.6767ZM17.8329 18.4309C18.0966 19.382 18.3521 21.2267 18.4881 23.1862C18.554 24.0799 18.554 26.5477 18.4922 27.2651C18.1625 30.9709 17.1447 32.9263 15.2698 33.4552C14.8413 33.574 14.1326 33.6027 13.601 33.5248C12.2618 33.3199 11.2193 32.664 10.3003 31.4465C9.69461 30.6471 9.12596 30.2699 7.85268 29.8272C6.92142 29.5034 6.3981 29.1877 5.87889 28.6343C4.57677 27.2528 4.51908 25.4368 5.72231 23.8831C6.0396 23.4691 6.63709 22.8747 7.03268 22.5754C7.20162 22.4483 7.43238 22.268 7.54364 22.1778C8.14937 21.694 9.62044 20.8742 10.8731 20.3208C13.6216 19.1073 16.3289 18.2752 17.4497 18.2998L17.7999 18.308L17.8329 18.4309Z" fill="#282828"/>
<path d="M23.2227 1.04959C23.0991 1.07828 22.7777 1.18896 22.5139 1.28735C21.9865 1.48822 21.4797 1.82437 21.0099 2.2876C20.6308 2.66064 20.4701 2.9025 19.8767 4.02163C19.3946 4.9235 19.2834 5.16536 19.0691 5.80486C18.5458 7.36673 18.2738 8.72362 18.0307 11.0316C17.837 12.8189 17.8288 12.8763 17.7834 12.7902C17.7628 12.7574 17.6269 12.3803 17.4826 11.9539C16.8687 10.1748 16.0074 8.39567 15.1091 7.06337C13.8194 5.14486 12.3359 3.92325 10.7989 3.50511C10.4157 3.39853 10.3292 3.39033 9.58336 3.39033C8.83752 3.39033 8.75099 3.39853 8.36777 3.50101C7.04504 3.85766 5.89538 4.80872 5.25668 6.07542C4.99296 6.60014 4.87346 7.00188 4.74572 7.78896C4.63034 8.48586 4.54793 8.69902 4.25536 9.08846C4.11938 9.27294 3.97104 9.40412 3.70319 9.57629C3.5054 9.70747 3.23756 9.87965 3.11394 9.96163C2.78017 10.1789 2.14971 10.8266 1.89423 11.2242C1.25141 12.2163 0.995928 13.069 1.00005 14.2291C1.00417 15.9098 1.59342 17.1109 2.80077 17.9144C3.73616 18.5334 4.86934 18.927 6.30744 19.1237C7.39941 19.2754 8.48314 19.2959 10.5723 19.2098L11.0874 19.1893L10.6547 19.4025C10.4157 19.5214 9.96246 19.7386 9.64517 19.8862C8.74274 20.3044 7.556 21.0259 6.6989 21.6859C4.67155 23.2395 3.7444 24.9367 3.97928 26.6584C4.23888 28.5769 5.42562 29.901 7.58896 30.6881C8.77983 31.1226 9.06003 31.3153 9.67401 32.127C10.0201 32.5861 10.1396 32.7009 10.8196 33.2666C11.5365 33.8651 12.134 34.1398 13.1889 34.357C13.8853 34.5005 14.1119 34.5128 14.7548 34.4431C15.3729 34.3816 15.686 34.3078 16.0734 34.148C16.8316 33.8364 17.359 33.3691 17.9359 32.5041C18.5952 31.5121 18.9702 30.3724 19.2051 28.6384C19.2628 28.208 19.3246 27.8021 19.341 27.7365C19.3699 27.6381 19.4564 27.9456 19.7943 29.2943C20.6761 32.8444 21.7722 35.9394 23.0496 38.4769C23.6142 39.6083 24.2982 40.7357 24.5207 40.9078C24.6896 41.039 24.9163 41.0308 25.0852 40.8791C25.2047 40.7725 25.2212 40.7357 25.2212 40.5594C25.2171 40.379 25.1718 40.2888 24.6649 39.4812C23.8614 38.1981 23.1485 36.7101 22.4892 34.9473C21.7393 32.9427 21.0594 30.7578 20.5031 28.5359C20.2105 27.3758 19.8314 25.5229 19.8973 25.5844C19.9097 25.5967 20.1611 26.1337 20.4536 26.7814C21.0305 28.0563 21.356 28.6753 21.8588 29.4583C22.9178 31.1062 23.9562 32.0573 25.0564 32.3852C26.5316 32.8239 28.493 32.2171 29.6591 30.9586C30.2031 30.3724 30.5368 29.8559 30.8459 29.1303C31.3074 28.0358 31.5959 27.6832 32.3911 27.2241C33.7427 26.4493 34.3979 25.8139 34.9047 24.785C35.4775 23.6249 35.5723 22.436 35.1849 21.2595C34.9624 20.579 34.6328 20.0461 34.0806 19.4804C33.31 18.6892 32.3664 18.1317 31.019 17.6726C29.9764 17.3118 28.2004 16.947 27.0549 16.8527C25.9794 16.7666 25.9629 16.7625 26.033 16.7256C26.0701 16.7051 26.4368 16.5985 26.853 16.4837C30.644 15.4466 32.7785 14.1225 33.3512 12.4459C33.4543 12.1343 33.4625 12.0769 33.4584 11.38C33.4584 10.6913 33.446 10.6093 33.3306 10.1625C33.0298 9.03107 32.5807 8.2071 31.8925 7.5225C31.5711 7.20275 31.1755 6.9076 30.4544 6.45667C29.4984 5.85815 29.2306 5.53431 28.835 4.48896C28.5795 3.82896 28.4683 3.6035 28.1634 3.16077C27.6277 2.38189 26.9148 1.79977 26.0453 1.42673C25.2789 1.09878 24.9534 1.02499 24.1292 1.00449C23.6265 0.992195 23.3916 1.00449 23.2227 1.04959ZM24.9946 1.99244C25.7198 2.18921 26.4244 2.60325 26.9725 3.15667C27.4134 3.5953 27.6442 3.96424 27.945 4.69803C28.0727 5.01368 28.2375 5.40313 28.3158 5.563C28.6578 6.28449 29.1111 6.75592 29.8611 7.17405C30.1207 7.31753 30.4256 7.49381 30.5368 7.5717C31.0849 7.93244 31.8472 8.78921 31.9832 9.19505C32.0162 9.29753 32.0697 9.40822 32.1027 9.43281C32.1686 9.4861 32.3953 10.1461 32.4777 10.5314C32.5601 10.9332 32.593 11.6629 32.5395 11.9539C32.4612 12.3721 32.2716 12.6877 31.8349 13.1264C31.0148 13.9462 29.6179 14.6718 27.5823 15.3318C26.1154 15.8073 24.8957 16.0943 22.9136 16.4223C21.2159 16.7092 20.1322 16.8445 19.3493 16.8814L18.7436 16.906L18.69 16.6846C18.6282 16.4386 18.657 14.1758 18.7312 12.9993C18.9043 10.3224 19.3287 7.88325 19.9468 6.05083C20.7833 3.5584 21.9 2.2589 23.4741 1.93095C23.7584 1.87356 24.6855 1.91045 24.9946 1.99244ZM10.5229 4.39058C10.9761 4.49716 11.6066 4.80462 12.1093 5.15716C12.4967 5.43182 13.4568 6.36238 13.7988 6.79691C14.1119 7.19455 14.6724 8.01443 14.9526 8.49406C16.3289 10.8348 17.7422 15.1104 17.7422 16.9306V17.1314L17.5486 17.197C16.9676 17.3856 14.6353 17.8324 13.0406 18.0579C10.2385 18.4555 7.61369 18.4637 5.70995 18.0825C3.57545 17.6562 2.43403 16.7912 1.99312 15.2744C1.91071 14.9875 1.89835 14.8604 1.90247 14.2701C1.90247 13.6429 1.91483 13.5568 2.03845 13.1018C2.19092 12.5278 2.48348 11.8965 2.76369 11.5317C3.0068 11.2078 3.28701 10.9783 3.99576 10.5028C4.59737 10.0969 5.06301 9.65008 5.22783 9.32213C5.37206 9.03517 5.48331 8.67853 5.66462 7.88735C5.84181 7.13306 5.99015 6.66573 6.15498 6.33778C6.67418 5.30064 7.6961 4.55455 8.89521 4.32499C9.31139 4.2471 10.0449 4.27579 10.5229 4.39058ZM26.169 17.6767C28.3735 17.816 30.438 18.2916 31.7978 18.9639C32.5724 19.3492 33.2812 19.9026 33.7139 20.4683C33.9776 20.8086 34.2413 21.3251 34.3732 21.7514C34.4721 22.0794 34.4844 22.186 34.4844 22.7148C34.4844 23.2436 34.4721 23.3502 34.3732 23.6781C33.9982 24.9121 33.2565 25.7196 31.7236 26.5559C31.5382 26.6584 31.3115 26.8429 31.0272 27.1298C30.5533 27.6053 30.3555 27.921 30.0176 28.7491C29.4408 30.1675 28.287 31.2046 26.9148 31.5285C26.5069 31.6268 25.8682 31.635 25.4891 31.5448C24.5289 31.3194 23.6224 30.5077 22.5922 28.9458C21.1995 26.8265 19.7449 22.8829 18.9784 19.1483C18.7683 18.1235 18.7394 17.8775 18.8218 17.8775C18.8589 17.8775 19.3452 17.8406 19.9097 17.7996C22.4357 17.6029 24.4177 17.5619 26.169 17.6767ZM17.8329 18.4309C18.0966 19.382 18.3521 21.2267 18.4881 23.1862C18.554 24.0799 18.554 26.5477 18.4922 27.2651C18.1625 30.9709 17.1447 32.9263 15.2698 33.4552C14.8413 33.574 14.1326 33.6027 13.601 33.5248C12.2618 33.3199 11.2193 32.664 10.3003 31.4465C9.69461 30.6471 9.12596 30.2699 7.85268 29.8272C6.92142 29.5034 6.3981 29.1877 5.87889 28.6343C4.57677 27.2528 4.51908 25.4368 5.72231 23.8831C6.0396 23.4691 6.63709 22.8747 7.03268 22.5754C7.20162 22.4483 7.43238 22.268 7.54364 22.1778C8.14937 21.694 9.62044 20.8742 10.8731 20.3208C13.6216 19.1073 16.3289 18.2752 17.4497 18.2998L17.7999 18.308L17.8329 18.4309Z" stroke="#282828" stroke-width="1.6" mask="url(#path-1-outside-1_168_629)"/>
<mask id="path-2-outside-2_168_629" maskUnits="userSpaceOnUse" x="4.66699" y="2" width="30" height="34" fill="black">
<rect fill="white" x="4.66699" y="2" width="30" height="34"/>
<path d="M23.4452 3.03967C23.3463 3.06262 23.0891 3.15117 22.8782 3.22988C22.4562 3.39057 22.0507 3.65949 21.6749 4.03008C21.3716 4.32851 21.2431 4.522 20.7684 5.41731C20.3827 6.1388 20.2937 6.33229 20.1223 6.84389C19.7036 8.09338 19.486 9.1789 19.2915 11.0253C19.1366 12.4551 19.13 12.501 19.0937 12.4322C19.0773 12.4059 18.9685 12.1042 18.8531 11.7631C18.3619 10.3398 17.6729 8.91653 16.9543 7.8507C15.9225 6.31589 14.7358 5.3386 13.5062 5.00409C13.1996 4.91882 13.1303 4.91226 12.5337 4.91226C11.937 4.91226 11.8678 4.91882 11.5612 5.00081C10.503 5.28613 9.58329 6.04697 9.07233 7.06034C8.86136 7.48011 8.76576 7.80151 8.66357 8.43117C8.57126 8.98869 8.50533 9.15922 8.27128 9.47077C8.1625 9.61835 8.04382 9.72329 7.82955 9.86103C7.67131 9.96598 7.45704 10.1037 7.35814 10.1693C7.09113 10.3431 6.58676 10.8613 6.38238 11.1794C5.86812 11.973 5.66373 12.6552 5.66703 13.5833C5.67033 14.9279 6.14173 15.8888 7.10761 16.5315C7.85592 17.0267 8.76246 17.3416 9.91295 17.499C10.7865 17.6203 11.6535 17.6367 13.3248 17.5679L13.7369 17.5515L13.3908 17.722C13.1996 17.8171 12.837 17.9909 12.5831 18.109C11.8612 18.4435 10.9118 19.0207 10.2261 19.5487C8.60423 20.7916 7.86251 22.1493 8.05041 23.5267C8.25809 25.0615 9.20749 26.1208 10.9382 26.7505C11.8909 27.0981 12.115 27.2522 12.6062 27.9016C12.8831 28.2689 12.9787 28.3607 13.5226 28.8133C14.0962 29.2921 14.5742 29.5118 15.4181 29.6856C15.9752 29.8004 16.1566 29.8102 16.6708 29.7545C17.1653 29.7053 17.4158 29.6463 17.7257 29.5184C18.3323 29.2691 18.7542 28.8953 19.2157 28.2033C19.7432 27.4096 20.0431 26.4979 20.231 25.1107C20.2772 24.7664 20.3266 24.4417 20.3398 24.3892C20.3629 24.3105 20.4321 24.5565 20.7024 25.6354C21.4079 28.4755 22.2848 30.9515 23.3067 32.9815C23.7583 33.8867 24.3055 34.7885 24.4836 34.9263C24.6187 35.0312 24.8 35.0246 24.9352 34.9033C25.0308 34.818 25.044 34.7885 25.044 34.6475C25.0407 34.5032 25.0044 34.4311 24.5989 33.785C23.9561 32.7585 23.3858 31.5681 22.8584 30.1579C22.2584 28.5542 21.7145 26.8062 21.2694 25.0287C21.0354 24.1006 20.7321 22.6183 20.7849 22.6675C20.7948 22.6773 20.9958 23.1069 21.2299 23.6251C21.6914 24.645 21.9518 25.1402 22.354 25.7666C23.2012 27.085 24.0319 27.8458 24.9121 28.1082C26.0923 28.4591 27.6614 27.9737 28.5943 26.9669C29.0295 26.4979 29.2965 26.0847 29.5437 25.5043C29.9129 24.6286 30.1437 24.3466 30.7799 23.9793C31.8612 23.3595 32.3853 22.8511 32.7908 22.028C33.249 21.0999 33.3248 20.1488 33.0149 19.2076C32.8369 18.6632 32.5732 18.2369 32.1315 17.7843C31.515 17.1514 30.7601 16.7054 29.6822 16.338C28.8481 16.0495 27.4273 15.7576 26.5109 15.6821C25.6505 15.6133 25.6373 15.61 25.6934 15.5805C25.723 15.5641 26.0164 15.4788 26.3494 15.387C29.3822 14.5573 31.0898 13.498 31.548 12.1567C31.6304 11.9074 31.637 11.8615 31.6337 11.304C31.6337 10.7531 31.6238 10.6875 31.5315 10.33C31.2909 9.42486 30.9315 8.76568 30.381 8.218C30.1239 7.9622 29.8074 7.72607 29.2305 7.36533C28.4657 6.88652 28.2515 6.62744 27.935 5.79117C27.7306 5.26317 27.6416 5.0828 27.3977 4.72861C26.9691 4.1055 26.3988 3.63982 25.7033 3.34138C25.0901 3.07902 24.8297 3.01999 24.1704 3.00359C23.7682 2.99376 23.5803 3.00359 23.4452 3.03967ZM24.8627 3.79395C25.4428 3.95137 26.0065 4.2826 26.445 4.72533C26.7977 5.07624 26.9823 5.37139 27.223 5.95842C27.3252 6.21095 27.457 6.5225 27.5196 6.6504C27.7933 7.22759 28.1559 7.60473 28.7558 7.93924C28.9635 8.05403 29.2075 8.19505 29.2965 8.25736C29.7349 8.54595 30.3448 9.23137 30.4535 9.55604C30.4799 9.63803 30.5228 9.72657 30.5491 9.74625C30.6019 9.78888 30.7832 10.3169 30.8491 10.6252C30.9151 10.9465 30.9414 11.5303 30.8986 11.7631C30.8359 12.0977 30.6843 12.3502 30.3349 12.7011C29.6789 13.357 28.5613 13.9375 26.9329 14.4655C25.7593 14.8459 24.7835 15.0754 23.1979 15.3378C21.8397 15.5674 20.9728 15.6756 20.3464 15.7051L19.8618 15.7248L19.819 15.5477C19.7695 15.3509 19.7926 13.5406 19.8519 12.5994C19.9904 10.4579 20.3299 8.5066 20.8244 7.04066C21.4936 5.04672 22.387 4.00712 23.6462 3.74476C23.8737 3.69885 24.6154 3.72836 24.8627 3.79395ZM13.2853 5.71246C13.6479 5.79773 14.1523 6.04369 14.5544 6.32573C14.8643 6.54545 15.6324 7.2899 15.906 7.63753C16.1566 7.95564 16.6049 8.61154 16.829 8.99524C17.9301 10.8678 19.0608 14.2884 19.0608 15.7445V15.9052L18.9058 15.9576C18.441 16.1085 16.5752 16.4659 15.2995 16.6463C13.0578 16.9644 10.9579 16.971 9.43495 16.666C7.72735 16.3249 6.81422 15.633 6.46149 14.4195C6.39556 14.19 6.38567 14.0883 6.38897 13.6161C6.38897 13.1143 6.39886 13.0454 6.49775 12.6814C6.61972 12.2223 6.85378 11.7172 7.07794 11.4254C7.27244 11.1663 7.4966 10.9826 8.0636 10.6022C8.54489 10.2775 8.9174 9.92006 9.04926 9.6577C9.16464 9.42814 9.25364 9.14282 9.39869 8.50988C9.54044 7.90645 9.65911 7.53259 9.79098 7.27022C10.2063 6.44051 11.0239 5.84364 11.9832 5.65999C12.3161 5.59768 12.9029 5.62064 13.2853 5.71246ZM25.8022 16.3413C27.5658 16.4528 29.2174 16.8333 30.3052 17.3711C30.9249 17.6794 31.492 18.1221 31.8381 18.5747C32.0491 18.8469 32.26 19.2601 32.3655 19.6012C32.4446 19.8635 32.4545 19.9488 32.4545 20.3718C32.4545 20.7949 32.4446 20.8802 32.3655 21.1425C32.0655 22.1296 31.4722 22.7757 30.2459 23.4447C30.0975 23.5267 29.9162 23.6743 29.6888 23.9039C29.3097 24.2843 29.1514 24.5368 28.8811 25.1993C28.4196 26.334 27.4966 27.1637 26.3988 27.4228C26.0725 27.5015 25.5615 27.508 25.2582 27.4359C24.4901 27.2555 23.7649 26.6062 22.9408 25.3567C21.8266 23.6612 20.6629 20.5063 20.0497 17.5187C19.8816 16.6988 19.8585 16.502 19.9245 16.502C19.9541 16.502 20.3431 16.4725 20.7948 16.4397C22.8155 16.2823 24.4011 16.2495 25.8022 16.3413ZM19.1333 16.9448C19.3443 17.7056 19.5487 19.1814 19.6575 20.749C19.7102 21.4639 19.7102 23.4382 19.6607 24.0121C19.397 26.9767 18.5828 28.5411 17.0829 28.9641C16.74 29.0592 16.173 29.0822 15.7478 29.0199C14.6764 28.8559 13.8424 28.3312 13.1073 27.3572C12.6227 26.7177 12.1678 26.416 11.1491 26.0618C10.4041 25.8027 9.98547 25.5502 9.57011 25.1074C8.52841 24.0022 8.48226 22.5494 9.44484 21.3065C9.69867 20.9753 10.1767 20.4997 10.4931 20.2603C10.6283 20.1587 10.8129 20.0144 10.9019 19.9422C11.3865 19.5552 12.5633 18.8993 13.5655 18.4566C15.7643 17.4859 17.9301 16.8201 18.8267 16.8398L19.1069 16.8464L19.1333 16.9448Z"/>
</mask>
<path d="M23.4452 3.03967C23.3463 3.06262 23.0891 3.15117 22.8782 3.22988C22.4562 3.39057 22.0507 3.65949 21.6749 4.03008C21.3716 4.32851 21.2431 4.522 20.7684 5.41731C20.3827 6.1388 20.2937 6.33229 20.1223 6.84389C19.7036 8.09338 19.486 9.1789 19.2915 11.0253C19.1366 12.4551 19.13 12.501 19.0937 12.4322C19.0773 12.4059 18.9685 12.1042 18.8531 11.7631C18.3619 10.3398 17.6729 8.91653 16.9543 7.8507C15.9225 6.31589 14.7358 5.3386 13.5062 5.00409C13.1996 4.91882 13.1303 4.91226 12.5337 4.91226C11.937 4.91226 11.8678 4.91882 11.5612 5.00081C10.503 5.28613 9.58329 6.04697 9.07233 7.06034C8.86136 7.48011 8.76576 7.80151 8.66357 8.43117C8.57126 8.98869 8.50533 9.15922 8.27128 9.47077C8.1625 9.61835 8.04382 9.72329 7.82955 9.86103C7.67131 9.96598 7.45704 10.1037 7.35814 10.1693C7.09113 10.3431 6.58676 10.8613 6.38238 11.1794C5.86812 11.973 5.66373 12.6552 5.66703 13.5833C5.67033 14.9279 6.14173 15.8888 7.10761 16.5315C7.85592 17.0267 8.76246 17.3416 9.91295 17.499C10.7865 17.6203 11.6535 17.6367 13.3248 17.5679L13.7369 17.5515L13.3908 17.722C13.1996 17.8171 12.837 17.9909 12.5831 18.109C11.8612 18.4435 10.9118 19.0207 10.2261 19.5487C8.60423 20.7916 7.86251 22.1493 8.05041 23.5267C8.25809 25.0615 9.20749 26.1208 10.9382 26.7505C11.8909 27.0981 12.115 27.2522 12.6062 27.9016C12.8831 28.2689 12.9787 28.3607 13.5226 28.8133C14.0962 29.2921 14.5742 29.5118 15.4181 29.6856C15.9752 29.8004 16.1566 29.8102 16.6708 29.7545C17.1653 29.7053 17.4158 29.6463 17.7257 29.5184C18.3323 29.2691 18.7542 28.8953 19.2157 28.2033C19.7432 27.4096 20.0431 26.4979 20.231 25.1107C20.2772 24.7664 20.3266 24.4417 20.3398 24.3892C20.3629 24.3105 20.4321 24.5565 20.7024 25.6354C21.4079 28.4755 22.2848 30.9515 23.3067 32.9815C23.7583 33.8867 24.3055 34.7885 24.4836 34.9263C24.6187 35.0312 24.8 35.0246 24.9352 34.9033C25.0308 34.818 25.044 34.7885 25.044 34.6475C25.0407 34.5032 25.0044 34.4311 24.5989 33.785C23.9561 32.7585 23.3858 31.5681 22.8584 30.1579C22.2584 28.5542 21.7145 26.8062 21.2694 25.0287C21.0354 24.1006 20.7321 22.6183 20.7849 22.6675C20.7948 22.6773 20.9958 23.1069 21.2299 23.6251C21.6914 24.645 21.9518 25.1402 22.354 25.7666C23.2012 27.085 24.0319 27.8458 24.9121 28.1082C26.0923 28.4591 27.6614 27.9737 28.5943 26.9669C29.0295 26.4979 29.2965 26.0847 29.5437 25.5043C29.9129 24.6286 30.1437 24.3466 30.7799 23.9793C31.8612 23.3595 32.3853 22.8511 32.7908 22.028C33.249 21.0999 33.3248 20.1488 33.0149 19.2076C32.8369 18.6632 32.5732 18.2369 32.1315 17.7843C31.515 17.1514 30.7601 16.7054 29.6822 16.338C28.8481 16.0495 27.4273 15.7576 26.5109 15.6821C25.6505 15.6133 25.6373 15.61 25.6934 15.5805C25.723 15.5641 26.0164 15.4788 26.3494 15.387C29.3822 14.5573 31.0898 13.498 31.548 12.1567C31.6304 11.9074 31.637 11.8615 31.6337 11.304C31.6337 10.7531 31.6238 10.6875 31.5315 10.33C31.2909 9.42486 30.9315 8.76568 30.381 8.218C30.1239 7.9622 29.8074 7.72607 29.2305 7.36533C28.4657 6.88652 28.2515 6.62744 27.935 5.79117C27.7306 5.26317 27.6416 5.0828 27.3977 4.72861C26.9691 4.1055 26.3988 3.63982 25.7033 3.34138C25.0901 3.07902 24.8297 3.01999 24.1704 3.00359C23.7682 2.99376 23.5803 3.00359 23.4452 3.03967ZM24.8627 3.79395C25.4428 3.95137 26.0065 4.2826 26.445 4.72533C26.7977 5.07624 26.9823 5.37139 27.223 5.95842C27.3252 6.21095 27.457 6.5225 27.5196 6.6504C27.7933 7.22759 28.1559 7.60473 28.7558 7.93924C28.9635 8.05403 29.2075 8.19505 29.2965 8.25736C29.7349 8.54595 30.3448 9.23137 30.4535 9.55604C30.4799 9.63803 30.5228 9.72657 30.5491 9.74625C30.6019 9.78888 30.7832 10.3169 30.8491 10.6252C30.9151 10.9465 30.9414 11.5303 30.8986 11.7631C30.8359 12.0977 30.6843 12.3502 30.3349 12.7011C29.6789 13.357 28.5613 13.9375 26.9329 14.4655C25.7593 14.8459 24.7835 15.0754 23.1979 15.3378C21.8397 15.5674 20.9728 15.6756 20.3464 15.7051L19.8618 15.7248L19.819 15.5477C19.7695 15.3509 19.7926 13.5406 19.8519 12.5994C19.9904 10.4579 20.3299 8.5066 20.8244 7.04066C21.4936 5.04672 22.387 4.00712 23.6462 3.74476C23.8737 3.69885 24.6154 3.72836 24.8627 3.79395ZM13.2853 5.71246C13.6479 5.79773 14.1523 6.04369 14.5544 6.32573C14.8643 6.54545 15.6324 7.2899 15.906 7.63753C16.1566 7.95564 16.6049 8.61154 16.829 8.99524C17.9301 10.8678 19.0608 14.2884 19.0608 15.7445V15.9052L18.9058 15.9576C18.441 16.1085 16.5752 16.4659 15.2995 16.6463C13.0578 16.9644 10.9579 16.971 9.43495 16.666C7.72735 16.3249 6.81422 15.633 6.46149 14.4195C6.39556 14.19 6.38567 14.0883 6.38897 13.6161C6.38897 13.1143 6.39886 13.0454 6.49775 12.6814C6.61972 12.2223 6.85378 11.7172 7.07794 11.4254C7.27244 11.1663 7.4966 10.9826 8.0636 10.6022C8.54489 10.2775 8.9174 9.92006 9.04926 9.6577C9.16464 9.42814 9.25364 9.14282 9.39869 8.50988C9.54044 7.90645 9.65911 7.53259 9.79098 7.27022C10.2063 6.44051 11.0239 5.84364 11.9832 5.65999C12.3161 5.59768 12.9029 5.62064 13.2853 5.71246ZM25.8022 16.3413C27.5658 16.4528 29.2174 16.8333 30.3052 17.3711C30.9249 17.6794 31.492 18.1221 31.8381 18.5747C32.0491 18.8469 32.26 19.2601 32.3655 19.6012C32.4446 19.8635 32.4545 19.9488 32.4545 20.3718C32.4545 20.7949 32.4446 20.8802 32.3655 21.1425C32.0655 22.1296 31.4722 22.7757 30.2459 23.4447C30.0975 23.5267 29.9162 23.6743 29.6888 23.9039C29.3097 24.2843 29.1514 24.5368 28.8811 25.1993C28.4196 26.334 27.4966 27.1637 26.3988 27.4228C26.0725 27.5015 25.5615 27.508 25.2582 27.4359C24.4901 27.2555 23.7649 26.6062 22.9408 25.3567C21.8266 23.6612 20.6629 20.5063 20.0497 17.5187C19.8816 16.6988 19.8585 16.502 19.9245 16.502C19.9541 16.502 20.3431 16.4725 20.7948 16.4397C22.8155 16.2823 24.4011 16.2495 25.8022 16.3413ZM19.1333 16.9448C19.3443 17.7056 19.5487 19.1814 19.6575 20.749C19.7102 21.4639 19.7102 23.4382 19.6607 24.0121C19.397 26.9767 18.5828 28.5411 17.0829 28.9641C16.74 29.0592 16.173 29.0822 15.7478 29.0199C14.6764 28.8559 13.8424 28.3312 13.1073 27.3572C12.6227 26.7177 12.1678 26.416 11.1491 26.0618C10.4041 25.8027 9.98547 25.5502 9.57011 25.1074C8.52841 24.0022 8.48226 22.5494 9.44484 21.3065C9.69867 20.9753 10.1767 20.4997 10.4931 20.2603C10.6283 20.1587 10.8129 20.0144 10.9019 19.9422C11.3865 19.5552 12.5633 18.8993 13.5655 18.4566C15.7643 17.4859 17.9301 16.8201 18.8267 16.8398L19.1069 16.8464L19.1333 16.9448Z" fill="#9AD22F"/>
<path d="M23.4452 3.03967C23.3463 3.06262 23.0891 3.15117 22.8782 3.22988C22.4562 3.39057 22.0507 3.65949 21.6749 4.03008C21.3716 4.32851 21.2431 4.522 20.7684 5.41731C20.3827 6.1388 20.2937 6.33229 20.1223 6.84389C19.7036 8.09338 19.486 9.1789 19.2915 11.0253C19.1366 12.4551 19.13 12.501 19.0937 12.4322C19.0773 12.4059 18.9685 12.1042 18.8531 11.7631C18.3619 10.3398 17.6729 8.91653 16.9543 7.8507C15.9225 6.31589 14.7358 5.3386 13.5062 5.00409C13.1996 4.91882 13.1303 4.91226 12.5337 4.91226C11.937 4.91226 11.8678 4.91882 11.5612 5.00081C10.503 5.28613 9.58329 6.04697 9.07233 7.06034C8.86136 7.48011 8.76576 7.80151 8.66357 8.43117C8.57126 8.98869 8.50533 9.15922 8.27128 9.47077C8.1625 9.61835 8.04382 9.72329 7.82955 9.86103C7.67131 9.96598 7.45704 10.1037 7.35814 10.1693C7.09113 10.3431 6.58676 10.8613 6.38238 11.1794C5.86812 11.973 5.66373 12.6552 5.66703 13.5833C5.67033 14.9279 6.14173 15.8888 7.10761 16.5315C7.85592 17.0267 8.76246 17.3416 9.91295 17.499C10.7865 17.6203 11.6535 17.6367 13.3248 17.5679L13.7369 17.5515L13.3908 17.722C13.1996 17.8171 12.837 17.9909 12.5831 18.109C11.8612 18.4435 10.9118 19.0207 10.2261 19.5487C8.60423 20.7916 7.86251 22.1493 8.05041 23.5267C8.25809 25.0615 9.20749 26.1208 10.9382 26.7505C11.8909 27.0981 12.115 27.2522 12.6062 27.9016C12.8831 28.2689 12.9787 28.3607 13.5226 28.8133C14.0962 29.2921 14.5742 29.5118 15.4181 29.6856C15.9752 29.8004 16.1566 29.8102 16.6708 29.7545C17.1653 29.7053 17.4158 29.6463 17.7257 29.5184C18.3323 29.2691 18.7542 28.8953 19.2157 28.2033C19.7432 27.4096 20.0431 26.4979 20.231 25.1107C20.2772 24.7664 20.3266 24.4417 20.3398 24.3892C20.3629 24.3105 20.4321 24.5565 20.7024 25.6354C21.4079 28.4755 22.2848 30.9515 23.3067 32.9815C23.7583 33.8867 24.3055 34.7885 24.4836 34.9263C24.6187 35.0312 24.8 35.0246 24.9352 34.9033C25.0308 34.818 25.044 34.7885 25.044 34.6475C25.0407 34.5032 25.0044 34.4311 24.5989 33.785C23.9561 32.7585 23.3858 31.5681 22.8584 30.1579C22.2584 28.5542 21.7145 26.8062 21.2694 25.0287C21.0354 24.1006 20.7321 22.6183 20.7849 22.6675C20.7948 22.6773 20.9958 23.1069 21.2299 23.6251C21.6914 24.645 21.9518 25.1402 22.354 25.7666C23.2012 27.085 24.0319 27.8458 24.9121 28.1082C26.0923 28.4591 27.6614 27.9737 28.5943 26.9669C29.0295 26.4979 29.2965 26.0847 29.5437 25.5043C29.9129 24.6286 30.1437 24.3466 30.7799 23.9793C31.8612 23.3595 32.3853 22.8511 32.7908 22.028C33.249 21.0999 33.3248 20.1488 33.0149 19.2076C32.8369 18.6632 32.5732 18.2369 32.1315 17.7843C31.515 17.1514 30.7601 16.7054 29.6822 16.338C28.8481 16.0495 27.4273 15.7576 26.5109 15.6821C25.6505 15.6133 25.6373 15.61 25.6934 15.5805C25.723 15.5641 26.0164 15.4788 26.3494 15.387C29.3822 14.5573 31.0898 13.498 31.548 12.1567C31.6304 11.9074 31.637 11.8615 31.6337 11.304C31.6337 10.7531 31.6238 10.6875 31.5315 10.33C31.2909 9.42486 30.9315 8.76568 30.381 8.218C30.1239 7.9622 29.8074 7.72607 29.2305 7.36533C28.4657 6.88652 28.2515 6.62744 27.935 5.79117C27.7306 5.26317 27.6416 5.0828 27.3977 4.72861C26.9691 4.1055 26.3988 3.63982 25.7033 3.34138C25.0901 3.07902 24.8297 3.01999 24.1704 3.00359C23.7682 2.99376 23.5803 3.00359 23.4452 3.03967ZM24.8627 3.79395C25.4428 3.95137 26.0065 4.2826 26.445 4.72533C26.7977 5.07624 26.9823 5.37139 27.223 5.95842C27.3252 6.21095 27.457 6.5225 27.5196 6.6504C27.7933 7.22759 28.1559 7.60473 28.7558 7.93924C28.9635 8.05403 29.2075 8.19505 29.2965 8.25736C29.7349 8.54595 30.3448 9.23137 30.4535 9.55604C30.4799 9.63803 30.5228 9.72657 30.5491 9.74625C30.6019 9.78888 30.7832 10.3169 30.8491 10.6252C30.9151 10.9465 30.9414 11.5303 30.8986 11.7631C30.8359 12.0977 30.6843 12.3502 30.3349 12.7011C29.6789 13.357 28.5613 13.9375 26.9329 14.4655C25.7593 14.8459 24.7835 15.0754 23.1979 15.3378C21.8397 15.5674 20.9728 15.6756 20.3464 15.7051L19.8618 15.7248L19.819 15.5477C19.7695 15.3509 19.7926 13.5406 19.8519 12.5994C19.9904 10.4579 20.3299 8.5066 20.8244 7.04066C21.4936 5.04672 22.387 4.00712 23.6462 3.74476C23.8737 3.69885 24.6154 3.72836 24.8627 3.79395ZM13.2853 5.71246C13.6479 5.79773 14.1523 6.04369 14.5544 6.32573C14.8643 6.54545 15.6324 7.2899 15.906 7.63753C16.1566 7.95564 16.6049 8.61154 16.829 8.99524C17.9301 10.8678 19.0608 14.2884 19.0608 15.7445V15.9052L18.9058 15.9576C18.441 16.1085 16.5752 16.4659 15.2995 16.6463C13.0578 16.9644 10.9579 16.971 9.43495 16.666C7.72735 16.3249 6.81422 15.633 6.46149 14.4195C6.39556 14.19 6.38567 14.0883 6.38897 13.6161C6.38897 13.1143 6.39886 13.0454 6.49775 12.6814C6.61972 12.2223 6.85378 11.7172 7.07794 11.4254C7.27244 11.1663 7.4966 10.9826 8.0636 10.6022C8.54489 10.2775 8.9174 9.92006 9.04926 9.6577C9.16464 9.42814 9.25364 9.14282 9.39869 8.50988C9.54044 7.90645 9.65911 7.53259 9.79098 7.27022C10.2063 6.44051 11.0239 5.84364 11.9832 5.65999C12.3161 5.59768 12.9029 5.62064 13.2853 5.71246ZM25.8022 16.3413C27.5658 16.4528 29.2174 16.8333 30.3052 17.3711C30.9249 17.6794 31.492 18.1221 31.8381 18.5747C32.0491 18.8469 32.26 19.2601 32.3655 19.6012C32.4446 19.8635 32.4545 19.9488 32.4545 20.3718C32.4545 20.7949 32.4446 20.8802 32.3655 21.1425C32.0655 22.1296 31.4722 22.7757 30.2459 23.4447C30.0975 23.5267 29.9162 23.6743 29.6888 23.9039C29.3097 24.2843 29.1514 24.5368 28.8811 25.1993C28.4196 26.334 27.4966 27.1637 26.3988 27.4228C26.0725 27.5015 25.5615 27.508 25.2582 27.4359C24.4901 27.2555 23.7649 26.6062 22.9408 25.3567C21.8266 23.6612 20.6629 20.5063 20.0497 17.5187C19.8816 16.6988 19.8585 16.502 19.9245 16.502C19.9541 16.502 20.3431 16.4725 20.7948 16.4397C22.8155 16.2823 24.4011 16.2495 25.8022 16.3413ZM19.1333 16.9448C19.3443 17.7056 19.5487 19.1814 19.6575 20.749C19.7102 21.4639 19.7102 23.4382 19.6607 24.0121C19.397 26.9767 18.5828 28.5411 17.0829 28.9641C16.74 29.0592 16.173 29.0822 15.7478 29.0199C14.6764 28.8559 13.8424 28.3312 13.1073 27.3572C12.6227 26.7177 12.1678 26.416 11.1491 26.0618C10.4041 25.8027 9.98547 25.5502 9.57011 25.1074C8.52841 24.0022 8.48226 22.5494 9.44484 21.3065C9.69867 20.9753 10.1767 20.4997 10.4931 20.2603C10.6283 20.1587 10.8129 20.0144 10.9019 19.9422C11.3865 19.5552 12.5633 18.8993 13.5655 18.4566C15.7643 17.4859 17.9301 16.8201 18.8267 16.8398L19.1069 16.8464L19.1333 16.9448Z" stroke="#9AD22F" stroke-width="1.6" mask="url(#path-2-outside-2_168_629)"/>
<path d="M43.4189 18.8011V9.24108H45.2318V13.6493L48.8841 9.24108H51.0969L47.0846 13.9547L51.3501 18.8011H49.0574L45.2318 14.446V18.8011H43.4189Z" fill="#282828"/>
<path d="M53.0835 18.8011V9.24108H57.1358C57.2291 9.24108 57.3535 9.24551 57.509 9.25436C57.6689 9.25878 57.8111 9.27206 57.9355 9.29419C58.5087 9.38271 58.9775 9.57081 59.3418 9.85849C59.7106 10.1462 59.9817 10.5091 60.1549 10.9473C60.3282 11.381 60.4149 11.8656 60.4149 12.4012C60.4149 12.9367 60.326 13.4236 60.1483 13.8617C59.975 14.2955 59.7039 14.6562 59.3352 14.9439C58.9708 15.2316 58.5043 15.4197 57.9355 15.5082C57.8111 15.5259 57.6689 15.5392 57.509 15.548C57.349 15.5569 57.2246 15.5613 57.1358 15.5613H54.8964V18.8011H53.0835ZM54.8964 13.875H57.0558C57.1491 13.875 57.2513 13.8706 57.3624 13.8617C57.4734 13.8529 57.5756 13.8352 57.6689 13.8086C57.9133 13.7422 58.1022 13.6316 58.2355 13.4767C58.3688 13.3173 58.4598 13.1425 58.5087 12.9522C58.562 12.7575 58.5887 12.5738 58.5887 12.4012C58.5887 12.2286 58.562 12.0471 58.5087 11.8568C58.4598 11.6621 58.3688 11.4872 58.2355 11.3323C58.1022 11.173 57.9133 11.0601 57.6689 10.9937C57.5756 10.9672 57.4734 10.9495 57.3624 10.9406C57.2513 10.9318 57.1491 10.9274 57.0558 10.9274H54.8964V13.875Z" fill="#282828"/>
<path d="M62.5528 18.8011V9.24108H68.8178V10.9274H64.3657V12.9721H68.018V14.6584H64.3657V17.1148H68.8178V18.8011H62.5528Z" fill="#282828"/>
<path d="M70.6819 20.3944V17.1148C70.9707 17.1148 71.2151 17.044 71.415 16.9023C71.6194 16.7563 71.786 16.5527 71.9149 16.2916C72.0437 16.026 72.1459 15.7162 72.2215 15.3621C72.297 15.008 72.3525 14.623 72.3881 14.207C72.4325 13.6758 72.4725 13.1536 72.5081 12.6402C72.5436 12.1224 72.5791 11.5868 72.6147 11.0336C72.6502 10.4759 72.6902 9.87399 72.7347 9.2278L79.1063 9.24108V17.1148H79.8394V20.3944H78.0266V18.8011H72.4947V20.3944H70.6819ZM73.3878 17.1148H77.2934V10.9274L74.3875 10.9141C74.3564 11.3522 74.3298 11.755 74.3076 12.1224C74.2898 12.4897 74.2676 12.8615 74.2409 13.2377C74.2143 13.6139 74.1787 14.0343 74.1343 14.4991C74.0898 14.9638 74.0454 15.3466 74.001 15.6476C73.9565 15.9441 73.8877 16.203 73.7944 16.4243C73.7055 16.6456 73.57 16.8758 73.3878 17.1148Z" fill="#282828"/>
<path d="M89.9545 18.8011H88.115V12.4277L83.9428 18.8011H82.1033V9.24108H83.9428V15.6144L88.115 9.24108H89.9545V18.8011Z" fill="#282828"/>
<path d="M94.84 18.8011V10.9274H91.8142V9.24108H99.6787V10.9274H96.6529V18.8011H94.84Z" fill="#282828"/>
<path d="M101.55 18.8011V9.24108H103.362V13.1713H107.655V9.24108H109.467V18.8011H107.655V14.8576H103.362V18.8011H101.55Z" fill="#282828"/>
<path d="M112.125 18.8011V9.24108H113.938V12.4809H116.177C116.266 12.4809 116.391 12.4853 116.551 12.4941C116.71 12.4986 116.853 12.5118 116.977 12.534C117.546 12.6225 118.012 12.8106 118.377 13.0983C118.745 13.386 119.017 13.7489 119.19 14.187C119.368 14.6208 119.456 15.1054 119.456 15.641C119.456 16.1765 119.37 16.6633 119.196 17.1015C119.023 17.5352 118.752 17.896 118.383 18.1836C118.019 18.4713 117.55 18.6594 116.977 18.7479C116.853 18.7657 116.71 18.7789 116.551 18.7878C116.395 18.7966 116.271 18.8011 116.177 18.8011H112.125ZM113.938 17.1148H116.097C116.191 17.1148 116.293 17.1104 116.404 17.1015C116.515 17.0927 116.617 17.075 116.71 17.0484C116.955 16.982 117.144 16.8714 117.277 16.7165C117.41 16.5571 117.501 16.3823 117.55 16.192C117.604 15.9972 117.63 15.8136 117.63 15.641C117.63 15.4683 117.604 15.2869 117.55 15.0966C117.501 14.9018 117.41 14.727 117.277 14.5721C117.144 14.4128 116.955 14.2999 116.71 14.2335C116.617 14.207 116.515 14.1893 116.404 14.1804C116.293 14.1716 116.191 14.1671 116.097 14.1671H113.938V17.1148ZM120.416 18.8011V9.24108H122.229V18.8011H120.416Z" fill="#282828"/>
<path d="M124.901 18.8011V9.24108H126.741V15.6144L130.913 9.24108H132.752V18.8011H130.913V12.4277L126.741 18.8011H124.901ZM128.793 8.44441C128.402 8.44441 128.047 8.34926 127.727 8.15894C127.407 7.96863 127.152 7.71414 126.961 7.39547C126.769 7.07681 126.674 6.72273 126.674 6.33325H128.074C128.074 6.53242 128.142 6.70282 128.28 6.84445C128.422 6.98165 128.593 7.05025 128.793 7.05025C128.993 7.05025 129.162 6.98165 129.3 6.84445C129.442 6.70282 129.513 6.53242 129.513 6.33325H130.913C130.913 6.72273 130.817 7.07681 130.626 7.39547C130.435 7.71414 130.18 7.96863 129.86 8.15894C129.54 8.34926 129.184 8.44441 128.793 8.44441Z" fill="#282828"/>
<path d="M50.6836 34.9999V33.4066H43.4189V23.8466H45.2318V31.8133H49.6039V24.1122H51.4168V31.8133H52.4965V34.9999H50.6836Z" fill="#282828"/>
<path d="M54.3592 33.4066V23.8466H60.6242V25.5329H56.1721V27.5777H59.8244V29.2639H56.1721V31.7203H60.6242V33.4066H54.3592Z" fill="#282828"/>
<path d="M63.0215 33.4066V23.8466H64.8343V27.7768H69.1265V23.8466H70.9393V33.4066H69.1265V29.4631H64.8343V33.4066H63.0215Z" fill="#282828"/>
<path d="M75.8363 33.4066V25.5329H72.8105V23.8466H80.675V25.5329H77.6492V33.4066H75.8363Z" fill="#282828"/>
<path d="M82.5459 33.4066V23.8466H86.5981C86.6914 23.8466 86.8158 23.851 86.9713 23.8599C87.1313 23.8643 87.2735 23.8776 87.3979 23.8997C87.9711 23.9882 88.4398 24.1763 88.8042 24.464C89.173 24.7517 89.444 25.1146 89.6173 25.5528C89.7906 25.9865 89.8772 26.4712 89.8772 27.0067C89.8772 27.5422 89.7883 28.0291 89.6106 28.4673C89.4373 28.901 89.1663 29.2617 88.7975 29.5494C88.4332 29.8371 87.9666 30.0252 87.3979 30.1137C87.2735 30.1314 87.1313 30.1447 86.9713 30.1535C86.8114 30.1624 86.687 30.1668 86.5981 30.1668H84.3587V33.4066H82.5459ZM84.3587 28.4805H86.5181C86.6114 28.4805 86.7136 28.4761 86.8247 28.4673C86.9358 28.4584 87.038 28.4407 87.1313 28.4142C87.3757 28.3478 87.5645 28.2371 87.6978 28.0822C87.8311 27.9229 87.9222 27.748 87.9711 27.5577C88.0244 27.363 88.051 27.1793 88.051 27.0067C88.051 26.8341 88.0244 26.6526 87.9711 26.4623C87.9222 26.2676 87.8311 26.0928 87.6978 25.9379C87.5645 25.7785 87.3757 25.6657 87.1313 25.5993C87.038 25.5727 86.9358 25.555 86.8247 25.5462C86.7136 25.5373 86.6114 25.5329 86.5181 25.5329H84.3587V28.4805Z" fill="#282828"/>
</svg>
